HIERARCHY
ROOT Hips
{
 OFFSET 0.000000 0.000000 0.000000
 CHANNELS 6 Xposition Yposition Zposition Yrotation Xrotation Zrotation
 JOINT Chest
 {
  OFFSET 0.000000 9.585900 0.002600
  CHANNELS 3 Yrotation Xrotation Zrotation
  JOINT Chest2
  {
   OFFSET 0.000000 9.601200 -0.005300
   CHANNELS 3 Yrotation Xrotation Zrotation
   JOINT Chest3
   {
    OFFSET 0.000000 9.561800 0.000000
    CHANNELS 3 Yrotation Xrotation Zrotation
    JOINT Chest4
    {
     OFFSET 0.000000 9.552100 0.000000
     CHANNELS 3 Yrotation Xrotation Zrotation
     JOINT Neck
     {
      OFFSET 0.000000 14.453000 0.000000
      CHANNELS 3 Yrotation Xrotation Zrotation
      JOINT Head
      {
       OFFSET 0.000000 8.936500 -0.011300
       CHANNELS 3 Yrotation Xrotation Zrotation
       End Site
       {
        OFFSET 0.000000 17.073600 -0.006000
       }
      }
     }
     JOINT RightCollar
     {
      OFFSET -2.921100 9.558500 0.000000
      CHANNELS 3 Yrotation Xrotation Zrotation
      JOINT RightShoulder
      {
       OFFSET -13.519700 0.000000 0.000000
       CHANNELS 3 Yrotation Xrotation Zrotation
       JOINT RightElbow
       {
        OFFSET 0.000000 -29.696600 0.000000
        CHANNELS 3 Yrotation Xrotation Zrotation
        JOINT RightWrist
        {
         OFFSET 0.000000 -24.004700 0.000000
         CHANNELS 3 Yrotation Xrotation Zrotation
         End Site
         {
          OFFSET 0.000000 -17.728500 0.000000
         }
        }
       }
      }
     }
     JOINT LeftCollar
     {
      OFFSET 2.921100 9.558500 0.000000
      CHANNELS 3 Yrotation Xrotation Zrotation
      JOINT LeftShoulder
      {
       OFFSET 13.519700 0.000000 0.000000
       CHANNELS 3 Yrotation Xrotation Zrotation
       JOINT LeftElbow
       {
        OFFSET 0.000000 -29.696600 0.000000
        CHANNELS 3 Yrotation Xrotation Zrotation
        JOINT LeftWrist
        {
         OFFSET 0.000000 -24.004700 0.000000
         CHANNELS 3 Yrotation Xrotation Zrotation
         End Site
         {
          OFFSET 0.000000 -17.728500 0.000000
         }
        }
       }
      }
     }
    }
   }
  }
 }
 JOINT RightHip
 {
  OFFSET -7.771700 -0.012900 -0.001300
  CHANNELS 3 Yrotation Xrotation Zrotation
  JOINT RightKnee
  {
   OFFSET 0.000000 -40.869800 0.001200
   CHANNELS 3 Yrotation Xrotation Zrotation
   JOINT RightAnkle
   {
    OFFSET 0.000000 -39.717900 0.002100
    CHANNELS 3 Yrotation Xrotation Zrotation
    JOINT RightToe
    {
     OFFSET 0.000000 -4.965400 11.033500
     CHANNELS 3 Yrotation Xrotation Zrotation
     End Site
     {
      OFFSET 0.000000 -1.423100 5.872300
     }
    }
   }
  }
 }
 JOINT LeftHip
 {
  OFFSET 7.771700 -0.012900 -0.001300
  CHANNELS 3 Yrotation Xrotation Zrotation
  JOINT LeftKnee
  {
   OFFSET 0.000000 -40.869800 0.001200
   CHANNELS 3 Yrotation Xrotation Zrotation
   JOINT LeftAnkle
   {
    OFFSET 0.000000 -39.717900 0.002100
    CHANNELS 3 Yrotation Xrotation Zrotation
    JOINT LeftToe
    {
     OFFSET 0.000000 -4.965400 11.033500
     CHANNELS 3 Yrotation Xrotation Zrotation
     End Site
     {
      OFFSET 0.000000 -1.423100 5.872300
     }
    }
   }
  }
 }
}
MOTION
Frames: 7
Frame Time: 0.008333
-4.063943 54.104695 32.425487 170.623192 -41.062952 -5.119589 4.404932 21.494248 1.831204 0.534954 2.977843 0.156498 0.906464 4.881166 0.287550 3.599227 18.367357 1.497276 0.633967 14.645971 0.406444 1.035276 -8.597430 0.522476 -3.467014 0.691519 -1.157041 -5.285599 0.205388 3.907973 179.955370 -79.297299 -166.478831 2.205447 3.019601 -0.099124 -2.766682 1.306517 0.147883 7.052426 -0.622520 2.691578 171.665405 -73.683383 -176.293894 -7.732401 1.471924 -4.810842 -6.686235 -48.980061 11.092009 -82.647439 80.232853 -79.480497 -0.340199 2.636183 -0.350356 0.087711 -0.157769 -0.191199 -2.138088 -36.433107 9.220193 74.664085 83.620758 65.076826 -4.132143 -12.153761 9.421015 0.020990 0.018029 0.020271
-4.071050 54.119802 32.433972 170.639644 -41.109656 -5.141311 4.419501 21.577336 1.873420 0.550240 2.998808 0.163244 0.908232 4.885921 0.286526 3.596951 18.346212 1.489191 0.671243 14.710199 0.417027 1.033450 -8.557808 0.519226 -3.419951 0.722266 -1.151365 -5.290240 0.240206 3.975694 179.650881 -79.253428 -166.230522 2.162381 3.096979 -0.130576 -2.728344 1.358431 0.140101 7.006871 -0.668941 2.618359 170.983043 -73.739254 -175.647535 -7.785181 1.641370 -4.875175 -6.614634 -48.848040 10.975526 -86.380350 80.446422 -83.141186 -0.330541 2.239973 -0.356002 0.097857 -0.432464 -0.096033 -2.154221 -36.380526 9.198620 74.623475 83.580562 65.046607 -4.106456 -12.156812 9.405034 -0.004043 0.017840 0.014569
-4.084481 54.130420 32.448408 170.610566 -41.124308 -5.108612 4.445482 21.638749 1.890067 0.559445 3.011816 0.165947 0.914051 4.890375 0.284771 3.658679 18.387465 1.517724 0.649315 14.710907 0.407055 1.032064 -8.518066 0.510533 -3.428211 0.685100 -1.160773 -5.307122 0.267745 4.039542 179.582764 -79.275356 -166.198772 2.156045 3.110659 -0.184410 -2.746659 1.324894 0.119695 6.978901 -0.692712 2.547601 170.255072 -73.789349 -174.965671 -7.835664 1.805675 -4.936173 -6.613005 -48.730809 10.884049 -90.197520 80.570554 -86.939963 -0.359196 1.920687 -0.442945 0.096334 -0.694939 0.014042 -2.115448 -36.365190 9.139897 74.487800 83.527987 64.940241 -4.102819 -12.140919 9.365786 -0.005380 0.017375 0.023025
-4.098804 54.139763 32.465938 170.549567 -41.135276 -5.054625 4.485608 21.666161 1.886389 0.562679 3.040201 0.179089 0.928096 4.906771 0.289162 3.725273 18.429978 1.551079 0.627145 14.711203 0.392595 1.027482 -8.476325 0.499405 -3.438724 0.650301 -1.173155 -5.322034 0.300102 4.107299 179.918293 -79.335549 -166.574022 2.230083 3.076425 -0.236012 -2.761109 1.294796 0.103278 6.958359 -0.715922 2.477415 169.553181 -73.831324 -174.313872 -7.880528 1.956560 -4.988943 -6.643463 -48.593494 10.805048 -93.935868 80.616150 -90.674901 -0.409990 1.626311 -0.570665 0.088157 -0.937239 0.106955 -2.048526 -36.354971 9.082071 74.381981 83.463316 64.864105 -4.113401 -12.122064 9.326050 -0.010075 0.020106 0.036541
-4.111866 54.146751 32.487569 170.473866 -41.133963 -4.999046 4.536470 21.678643 1.888624 0.565096 3.045244 0.180649 0.939123 4.930921 0.299129 3.745950 18.424962 1.553448 0.662201 14.775951 0.402909 1.020650 -8.433056 0.486847 -3.401753 0.686558 -1.164735 -5.337995 0.329665 4.175586 -179.912683 -79.322324 -166.785607 2.255618 3.077813 -0.281302 -2.724571 1.335896 0.117085 6.947847 -0.737463 2.409191 168.924879 -73.859446 -173.737428 -7.922173 2.091213 -5.036452 -6.706647 -48.447631 10.744070 -97.501689 80.585010 -94.244876 -0.474160 1.364972 -0.706182 0.085436 -1.152515 0.174341 -1.982035 -36.359015 9.047858 74.257367 83.374165 64.774458 -4.173353 -12.081110 9.267860 0.013763 0.011502 0.057507
-4.128555 54.152319 32.509620 170.388612 -41.135735 -4.907774 4.569636 21.712667 1.865370 0.578111 3.033947 0.171416 0.944126 4.923954 0.293966 3.781123 18.450873 1.574099 0.693275 14.838924 0.413870 1.017584 -8.390930 0.471832 -3.370716 0.725714 -1.153710 -5.356340 0.354202 4.243128 -179.854951 -79.274950 -166.877361 2.251834 3.079967 -0.323402 -2.690239 1.380401 0.140373 6.948467 -0.752529 2.346045 168.402096 -73.870762 -173.264634 -7.966567 2.208958 -5.087288 -6.750922 -48.285340 10.641906 -100.815516 80.488031 -97.575525 -0.558864 1.170527 -0.828496 0.105011 -1.374968 0.216259 -1.885609 -36.360236 8.983535 74.168321 83.302528 64.708611 -4.237679 -12.037548 9.222639 0.066701 -0.018558 0.067089
-4.145223 54.157955 32.530425 170.291935 -41.155182 -4.795599 4.602504 21.764753 1.827820 0.587926 3.044958 0.174191 0.959933 4.940991 0.298722 3.882600 18.531720 1.639706 0.635637 14.797804 0.375614 1.020552 -8.353438 0.453228 -3.418263 0.662728 -1.180512 -5.376203 0.375293 4.307783 -179.789607 -79.213867 -166.966267 2.246001 3.068104 -0.361479 -2.730929 1.324558 0.130661 6.958766 -0.758071 2.289183 168.147887 -73.828390 -173.073958 -7.981348 2.350361 -5.128421 -6.779354 -48.091868 10.519660 -103.807198 80.352247 -100.596772 -0.649979 1.028737 -0.922887 0.134831 -1.584827 0.232678 -1.769967 -36.340847 8.901409 74.067415 83.240871 64.627098 -4.297931 -12.002242 9.190516 0.112985 -0.034369 0.074195
